<?xml version="1.0" encoding="utf-8"?>
<!-- Generator: Adobe Illustrator 27.3.1, SVG Export Plug-In . SVG Version: 6.00 Build 0)  -->
<svg version="1.1" id="Layer_1" xmlns="http://www.w3.org/2000/svg" xmlns:xlink="http://www.w3.org/1999/xlink" x="0px" y="0px"
	 viewBox="0 0 832.4 175.5" style="enable-background:new 0 0 832.4 175.5;" xml:space="preserve">
<style type="text/css">
	.st0{fill:none;stroke:#231F20;stroke-width:4;stroke-miterlimit:10;}
</style>
<g>
	<g>
		<path class="st0" d="M12.3,129.5v-23.8c6.9,4.3,12.7,6.4,17.4,6.4c2.7,0,4.9-0.8,6.5-2.4c1.6-1.6,2.4-3.7,2.4-6.4
			c0-2-0.6-4-1.9-5.7c-1.3-1.8-3.5-4-6.6-6.5C22.6,85,17.1,79.3,13.7,74S8.6,62.9,8.6,56.4c0-8.8,2.6-16,7.9-21.6
			c5.2-5.6,12-8.3,20.3-8.3c6.2,0,12.3,1.4,18.3,4.2v22.9c-6.5-3.8-11.7-5.7-15.8-5.7c-2.7,0-4.8,0.7-6.4,2.1
			c-1.6,1.4-2.3,3.3-2.3,5.8c0,4.3,3.6,9.1,10.9,14.5c4.3,3.2,8.7,7.6,13.2,13.4c4.4,5.7,6.7,12.4,6.7,19.9c0,8.8-2.9,16.1-8.7,21.9
			c-5.8,5.8-13.2,8.7-22.1,8.7C24.4,134.1,18.3,132.6,12.3,129.5z"/>
		<path class="st0" d="M77,29.3h27c9.5,0,17.2,2.9,22.9,8.6c5.8,5.8,8.6,13.4,8.6,22.8c0,9.9-2.9,17.7-8.8,23.4
			c-5.8,5.6-13.9,8.5-24.3,8.5h-3.7v38.9H77V29.3z M98.8,48.9V73c4.9-0.1,8.5-1.1,10.8-3c2.3-1.9,3.5-4.9,3.5-9
			c0-4.4-1.1-7.5-3.4-9.3C107.5,49.9,103.8,49,98.8,48.9z"/>
		<path class="st0" d="M152.9,29.3h21.8v102.2h-21.8V29.3z"/>
		<path class="st0" d="M246.6,107.3v24.3c-4.6,1.6-8.7,2.4-12.4,2.4c-12.6,0-22.9-5-30.7-15.1c-7.9-10.1-11.8-23.3-11.8-39.8
			c0-15.3,4-27.8,11.9-37.8c7.9-9.9,17.9-14.9,30.1-14.9c4.7,0,9,0.7,13,2v24.3c-4.2-1.5-8.1-2.2-11.8-2.2c-5.7,0-10.4,2.8-14.1,8.3
			s-5.6,12.5-5.6,21c0,9.2,1.9,16.4,5.7,21.8c3.8,5.3,8.8,8,15.1,8C238.8,109.6,242.4,108.9,246.6,107.3z"/>
		<path class="st0" d="M260.7,29.3h44.2V51h-22.3v18.8h19.4V91h-19.4v18.6H305v21.8h-44.3V29.3z"/>
		<path class="st0" d="M404.2,131.5l-3.7-5.5c-6.9,5.6-13.9,8.3-21,8.3c-7.6,0-14-2.5-19.1-7.6c-5.2-5.1-7.7-11.3-7.7-18.8
			c0-5.6,1.4-10.4,4.1-14.3c2.7-3.9,7-8.3,12.8-13c-4.5-6-7.5-10.9-8.9-14.9c-1.4-4-2.2-8-2.2-12c0-8.1,2.5-14.7,7.4-19.7
			c4.9-5,11.3-7.5,19.2-7.5c7.4,0,13.7,2.6,19,7.8c5.3,5.2,7.9,11.4,7.9,18.7c0,5.2-1.2,10.1-3.7,14.8c-2.5,4.7-6.7,9.8-12.5,15.1
			l8.6,12.2l8.9-9.1l12.5,16.8l-9.6,9.7l12.8,19H404.2z M389.1,109.3l-8.6-12.7c-4.7,3.7-7,7.2-7,10.6c0,1.8,0.6,3.3,1.8,4.5
			c1.2,1.1,2.8,1.7,4.6,1.7C382.5,113.4,385.6,112,389.1,109.3z M384.5,66.6c5.2-4.7,7.8-9,7.8-12.9c0-1.8-0.7-3.3-2-4.5
			c-1.3-1.2-3-1.8-5.1-1.8c-1.8,0-3.4,0.7-4.8,2.2c-1.3,1.5-2,3.2-2,5.2C378.4,57.8,380.4,61.7,384.5,66.6z"/>
		<path d="M475.2,129.5v-23.8c6.9,4.3,12.7,6.4,17.4,6.4c2.7,0,4.9-0.8,6.5-2.4s2.4-3.7,2.4-6.4c0-2-0.6-4-1.9-5.7
			c-1.3-1.8-3.5-4-6.6-6.5c-7.5-6.1-13-11.8-16.4-17.1s-5.1-11.2-5.1-17.6c0-8.8,2.6-16,7.9-21.6c5.2-5.6,12-8.3,20.3-8.3
			c6.2,0,12.3,1.4,18.3,4.2v22.9c-6.5-3.8-11.7-5.7-15.8-5.7c-2.7,0-4.8,0.7-6.4,2.1c-1.6,1.4-2.3,3.3-2.3,5.8
			c0,4.3,3.6,9.1,10.9,14.5c4.3,3.2,8.7,7.6,13.2,13.4c4.4,5.7,6.7,12.4,6.7,19.9c0,8.8-2.9,16.1-8.7,21.9
			c-5.8,5.8-13.2,8.7-22.1,8.7C487.3,134.1,481.2,132.6,475.2,129.5z"/>
		<path d="M540.6,29.3h21.8v102.2h-21.8V29.3z"/>
		<path d="M579.6,29.3h62.1l-33.5,80.4h30.6v21.8h-63.9L608,51.2h-28.5V29.3z"/>
		<path d="M650.3,29.3h62.1l-33.5,80.4h30.6v21.8h-63.9l33.2-80.3h-28.5V29.3z"/>
		<path d="M725.2,29.3h21.8v78.5h17.3v23.6h-39.1V29.3z"/>
		<path d="M779.2,29.3h44.2V51H801v18.8h19.4V91H801v18.6h22.5v21.8h-44.3V29.3z"/>
	</g>
</g>
</svg>
